<svg xmlns="http://www.w3.org/2000/svg" width="1100" height="320" viewBox="0 0 1100 320">
  <rect width="1100" height="320" fill="#f6fbf6" />
  <g font-family="Georgia, serif" font-size="24" fill="#203226">
    <rect x="50" y="120" width="140" height="80" rx="5" fill="#ffffff" stroke="#9fbea4" stroke-width="2" />
    <text x="120" y="168" text-anchor="middle">Source</text>

    <rect x="250" y="120" width="170" height="80" rx="5" fill="#ffffff" stroke="#9fbea4" stroke-width="2" />
    <text x="335" y="168" text-anchor="middle">Encoder</text>

    <rect x="490" y="120" width="190" height="80" rx="5" fill="#e7f3e8" stroke="#7ea686" stroke-width="2" />
    <text x="585" y="168" text-anchor="middle">Channel + Noise</text>

    <rect x="750" y="120" width="170" height="80" rx="5" fill="#ffffff" stroke="#9fbea4" stroke-width="2" />
    <text x="835" y="168" text-anchor="middle">Decoder</text>

    <rect x="980" y="120" width="90" height="80" rx="5" fill="#ffffff" stroke="#9fbea4" stroke-width="2" />
    <text x="1025" y="168" text-anchor="middle">Dest.</text>
  </g>
  <g stroke="#486d50" stroke-width="3" fill="none">
    <line x1="190" y1="160" x2="250" y2="160" />
    <line x1="420" y1="160" x2="490" y2="160" />
    <line x1="680" y1="160" x2="750" y2="160" />
    <line x1="920" y1="160" x2="980" y2="160" />
  </g>
  <g fill="#486d50">
    <polygon points="250,160 238,154 238,166" />
    <polygon points="490,160 478,154 478,166" />
    <polygon points="750,160 738,154 738,166" />
    <polygon points="980,160 968,154 968,166" />
  </g>
</svg>
